<?xml version="1.0" standalone="no"?>
<!DOCTYPE svg PUBLIC "-//W3C//DTD SVG 20010904//EN"
 "http://www.w3.org/TR/2001/REC-SVG-20010904/DTD/svg10.dtd">
<svg version="1.0" xmlns="http://www.w3.org/2000/svg"
 width="180.000000pt" height="180.000000pt" viewBox="0 0 180.000000 180.000000"
 preserveAspectRatio="xMidYMid meet">

<g transform="translate(0.000000,180.000000) scale(0.100000,-0.100000)"
fill="#000000" stroke="none">
<path d="M603 1215 c4 -9 7 -156 7 -326 l0 -309 144 0 c99 0 156 4 184 14 128
45 191 166 180 343 -6 98 -37 172 -91 218 -63 55 -113 67 -281 73 -137 4 -148
3 -143 -13z m275 -60 c106 -32 152 -104 153 -239 0 -132 -25 -198 -93 -243
-36 -24 -52 -28 -139 -31 l-99 -4 0 266 0 266 63 0 c35 0 86 -7 115 -15z"/>
<path d="M231 1009 c-70 -31 -75 -38 -50 -65 l21 -22 35 24 c109 74 192 10
134 -104 -21 -41 -110 -130 -183 -182 -34 -24 -48 -40 -48 -57 l0 -23 172 2
172 3 7 27 7 28 -121 0 -122 1 35 27 c109 85 170 160 185 228 9 44 -16 99 -54
118 -43 23 -136 20 -190 -5z"/>
<path d="M1238 843 c4 -196 13 -233 63 -258 54 -28 141 -16 186 27 l21 20 7
-21 c10 -31 41 -44 91 -36 50 7 55 12 43 42 -6 16 -13 20 -29 16 -13 -4 -26 0
-31 8 -5 8 -9 96 -9 197 l0 182 -37 0 -38 0 3 -147 c3 -165 -2 -183 -57 -220
-41 -28 -81 -29 -112 -4 -23 19 -24 24 -27 195 l-4 176 -36 0 -37 0 3 -177z"/>
</g>
</svg>
